<?xml version="1.0" encoding="UTF-8" standalone="no"?>
<!-- Created with Inkscape (http://www.inkscape.org/) -->

<svg
   xmlns:dc="http://purl.org/dc/elements/1.1/"
   xmlns:cc="http://creativecommons.org/ns#"
   xmlns:rdf="http://www.w3.org/1999/02/22-rdf-syntax-ns#"
   xmlns:svg="http://www.w3.org/2000/svg"
   xmlns="http://www.w3.org/2000/svg"
   xmlns:sodipodi="http://sodipodi.sourceforge.net/DTD/sodipodi-0.dtd"
   xmlns:inkscape="http://www.inkscape.org/namespaces/inkscape"
   width="111.95595mm"
   height="36.63752mm"
   viewBox="0 0 111.95595 36.63752"
   version="1.1"
   id="svg8"
   inkscape:version="0.92.4 (5da689c313, 2019-01-14)"
   sodipodi:docname="title_image.svg">
  <defs
     id="defs2">
    <inkscape:path-effect
       effect="simplify"
       id="path-effect829"
       is_visible="true"
       steps="1"
       threshold="0.0463925"
       smooth_angles="360"
       helper_size="0"
       simplify_individual_paths="false"
       simplify_just_coalesce="false"
       simplifyindividualpaths="false"
       simplifyJustCoalesce="false" />
    <inkscape:path-effect
       effect="simplify"
       id="path-effect825"
       is_visible="true"
       steps="1"
       threshold="0.000408163"
       smooth_angles="360"
       helper_size="0"
       simplify_individual_paths="false"
       simplify_just_coalesce="false"
       simplifyindividualpaths="false"
       simplifyJustCoalesce="false" />
    <inkscape:path-effect
       effect="powerstroke"
       id="path-effect821"
       is_visible="true"
       offset_points="0,0.13229166"
       sort_points="true"
       interpolator_type="CubicBezierJohan"
       interpolator_beta="0.2"
       start_linecap_type="zerowidth"
       linejoin_type="extrp_arc"
       miter_limit="4"
       end_linecap_type="zerowidth" />
    <inkscape:path-effect
       effect="simplify"
       id="path-effect819"
       is_visible="true"
       steps="1"
       threshold="0.0125103"
       smooth_angles="360"
       helper_size="0"
       simplify_individual_paths="false"
       simplify_just_coalesce="false"
       simplifyindividualpaths="false"
       simplifyJustCoalesce="false" />
  </defs>
  <sodipodi:namedview
     id="base"
     pagecolor="#ffffff"
     bordercolor="#666666"
     borderopacity="1.0"
     inkscape:pageopacity="0.0"
     inkscape:pageshadow="2"
     inkscape:zoom="0.98994949"
     inkscape:cx="36.106815"
     inkscape:cy="88.872177"
     inkscape:document-units="mm"
     inkscape:current-layer="layer1"
     showgrid="false"
     showguides="false"
     fit-margin-top="0"
     fit-margin-left="0"
     fit-margin-right="0"
     fit-margin-bottom="0"
     inkscape:window-width="1920"
     inkscape:window-height="1015"
     inkscape:window-x="0"
     inkscape:window-y="0"
     inkscape:window-maximized="1" />
  <metadata
     id="metadata5">
    <rdf:RDF>
      <cc:Work
         rdf:about="">
        <dc:format>image/svg+xml</dc:format>
        <dc:type
           rdf:resource="http://purl.org/dc/dcmitype/StillImage" />
        <dc:title></dc:title>
      </cc:Work>
    </rdf:RDF>
  </metadata>
  <g
     inkscape:label="Layer 1"
     inkscape:groupmode="layer"
     id="layer1"
     transform="translate(-38.296854,-112.7035)">
    <path
       style="opacity:1;fill:#d710b8;fill-opacity:0.69458127;fill-rule:nonzero;stroke:none;stroke-width:2.06499982;stroke-linecap:round;stroke-linejoin:round;stroke-miterlimit:4;stroke-dasharray:none;stroke-opacity:1"
       id="path839"
       d="m 56.118892,124.95271 c 1.233691,-0.19431 2.480283,-0.28372 3.724957,-0.37316 1.174766,-0.0449 1.997282,0.74553 2.752027,1.54333 0.904507,0.90075 1.470276,1.99293 1.854565,3.19519 0.272539,1.14981 0.119803,2.31533 -0.264052,3.41725 -0.520499,1.27759 -1.58356,2.11203 -2.663417,2.90356 -2.918384,1.90076 -5.969685,3.60467 -9.229889,4.83433 -1.238631,0.42308 -2.608033,0.81327 -3.885033,0.28733 -0.252683,-0.10408 -0.481002,-0.25953 -0.721503,-0.3893 -2.079935,-1.39505 -3.341018,-3.58686 -4.500682,-5.74225 -1.014264,-2.13354 -1.708171,-4.44383 -1.78526,-6.8184 -0.01333,-0.41054 0.01728,-0.82132 0.0259,-1.23197 0.188428,-2.07606 0.971074,-4.04537 2.027494,-5.83082 0.218255,-0.36887 0.470733,-0.71639 0.706101,-1.07459 0.604409,-0.76732 0.912559,-1.21091 1.615192,-1.89389 1.768893,-1.71942 4.29447,-2.94901 6.388814,-3.99271 0.421164,-0.20988 0.897969,-0.28172 1.346954,-0.42258 2.390786,-0.56896 4.888717,-0.832 7.339851,-0.5374 0.432398,0.052 0.858872,0.14495 1.288309,0.21742 2.446221,0.43516 4.275635,2.02374 6.163588,3.50758 2.79704,2.22402 5.677556,4.33795 8.435123,6.61154 3.429474,2.89131 6.572152,6.10033 9.962594,9.03516 0.80322,0.69528 1.629132,1.36391 2.443697,2.04586 3.878162,3.1083 7.793493,6.28451 12.234938,8.5704 0.79656,0.40997 1.62461,0.7556 2.43691,1.13339 4.19811,1.82516 8.69518,2.87314 13.25623,3.22673 0.98608,0.0764 1.97641,0.0814 2.96461,0.12212 1.03579,-0.0408 2.0747,-0.0325 3.10739,-0.12244 4.36139,-0.38005 8.76319,-1.49173 12.72476,-3.36661 0.91036,-0.43084 1.77215,-0.95763 2.65823,-1.43644 -0.23198,0.0619 -0.84993,0.37006 -0.69594,0.18584 1.73642,-1.51292 2.21627,-1.80548 3.6735,-3.55459 0.96018,-1.1525 1.7464,-2.34312 2.43242,-3.67461 0.29799,-0.57838 0.53015,-1.18837 0.79523,-1.78255 1.01274,-2.73367 1.05028,-5.31135 0.0877,-8.06784 -0.16846,-0.48242 -0.3954,-0.94239 -0.5931,-1.41358 -1.06598,-2.16103 -2.58092,-4.13557 -4.53923,-5.56677 -0.41502,-0.30331 -0.86417,-0.55691 -1.29626,-0.83536 -2.69013,-1.67306 -5.38489,-2.31807 -8.47904,-2.71081 -1.46205,-0.0602 -2.99817,-0.0631 -4.36845,0.53437 -0.30165,0.13152 -1.15735,0.62663 -0.8632,0.4791 0.82237,-0.41245 1.63222,-0.8494 2.44833,-1.2741 -1.35714,1.27547 -2.60303,2.8694 -3.01973,4.72919 -0.0777,0.34663 -0.092,0.70447 -0.13803,1.0567 -0.0315,1.88508 0.62642,3.64766 1.78588,5.12455 0.24056,0.30641 0.5134,0.58602 0.7701,0.87903 1.0796,1.10437 2.3422,2.12712 3.85812,2.55418 0.20394,0.0575 0.41619,0.0797 0.62428,0.1196 0.19469,0.003 0.39032,0.0272 0.58407,0.008 0.34438,-0.0343 0.74522,-0.17377 1.05755,-0.31769 0.17628,-0.0812 0.68237,-0.3702 0.51402,-0.27359 -3.11672,1.78861 -3.63874,2.22891 -2.28942,1.19076 1.09439,-0.93825 1.58292,-2.22589 1.88344,-3.59359 0.11664,-0.75611 0.081,-0.39506 0.11835,-1.08197 0,0 3.50354,-1.76264 3.50354,-1.76264 v 0 c -0.0356,0.73767 5.3e-4,0.35444 -0.11749,1.14875 -0.27934,1.41537 -0.71633,2.79231 -1.77588,3.83013 -1.56753,1.43021 -0.51932,0.53792 -4.37833,2.70441 -0.70482,0.39569 -1.51665,0.49686 -2.30433,0.36593 -1.84293,-0.4994 -3.23942,-1.53827 -4.53648,-2.92648 -0.63822,-0.73967 -0.98146,-1.07581 -1.49261,-1.91774 -0.80002,-1.31772 -1.2168,-2.81746 -1.22934,-4.35558 0.0371,-0.37296 0.0415,-0.75062 0.11116,-1.11887 0.36237,-1.91471 1.60079,-3.56798 2.91369,-4.94364 1.3684,-0.84863 2.72002,-1.72493 4.1052,-2.5459 0.28576,-0.16937 0.59073,-0.30809 0.9027,-0.42219 1.41086,-0.516 2.94713,-0.48108 4.41952,-0.37 1.13844,0.16557 1.60038,0.20751 2.73428,0.47791 2.05137,0.48919 4.0074,1.28792 5.80655,2.39125 0.44151,0.28954 0.89975,0.55504 1.32451,0.86863 2.00647,1.48128 3.55003,3.48919 4.62716,5.72452 0.20301,0.48534 0.43554,0.95936 0.60902,1.45602 0.73279,2.09782 1.00479,4.39664 0.50934,6.58074 -0.13479,0.59422 -0.36031,1.16414 -0.54046,1.74621 -0.72041,1.63381 -0.88881,2.18718 -1.88683,3.71961 -0.87693,1.34652 -1.92955,2.61781 -3.07019,3.74739 -0.63358,0.62742 -1.26012,1.2762 -1.99245,1.7849 -1.71192,1.18916 -3.54432,2.19475 -5.31647,3.29212 -0.88183,0.46044 -1.74087,0.96745 -2.64548,1.38131 -4.00467,1.83213 -8.43141,2.92193 -12.81606,3.2842 -1.04522,0.0864 -2.09617,0.0763 -3.14425,0.11442 -0.99759,-0.0445 -1.9974,-0.0534 -2.99276,-0.13351 -4.59784,-0.36992 -9.12741,-1.42965 -13.34813,-3.30279 -0.81239,-0.38865 -1.640504,-0.74604 -2.437196,-1.16594 -4.428087,-2.33386 -8.324164,-5.54285 -12.210385,-8.65896 -0.823392,-0.68099 -1.657779,-1.3489 -2.470177,-2.04296 -3.417094,-2.91936 -6.610736,-6.09219 -10.095984,-8.93314 -2.798765,-2.24293 -5.685893,-4.36757 -8.543996,-6.53328 -1.861235,-1.42754 -3.669665,-2.946 -6.060726,-3.34961 -0.417941,-0.0664 -0.833175,-0.15295 -1.25382,-0.19922 -2.428703,-0.26717 -4.898293,0.0256 -7.248555,0.65415 -0.442777,0.15739 -1.641411,0.82261 -1.328332,0.47217 0.540596,-0.60511 1.363752,-0.88042 2.062133,-1.29354 0.358029,-0.21179 -0.705083,0.44298 -1.040408,0.68915 -0.773594,0.5679 -1.166423,0.94511 -1.805913,1.66021 -0.274878,0.30737 -0.526632,0.63467 -0.789951,0.952 -0.239953,0.34635 -0.498599,0.68047 -0.719857,1.03904 -1.065443,1.72668 -1.850824,3.65033 -2.095254,5.67024 -0.01931,0.40078 -0.06203,0.80112 -0.05794,1.20235 0.02368,2.3288 0.694021,4.60057 1.685759,6.69036 1.143995,2.08287 2.388076,4.21898 4.476668,5.48354 0.227719,0.10369 0.445592,0.23253 0.683159,0.3111 1.23793,0.40938 2.535957,-0.0485 3.706082,-0.44697 1.003091,-0.39423 1.990053,-0.81528 2.957119,-1.29284 0.353824,-0.17473 1.383778,-0.75686 1.051335,-0.54425 -0.446461,0.28554 -3.861356,2.25816 -1.381813,0.78634 1.049959,-0.73014 2.106512,-1.50212 2.695358,-2.67305 0.438155,-1.00127 0.593235,-2.10409 0.390011,-3.18533 -0.349205,-1.15164 -0.893709,-2.18459 -1.757515,-3.04072 -0.726295,-0.73229 -1.482387,-1.35313 -2.574277,-1.25428 -1.248146,0.076 -2.501953,0.17262 -3.724579,0.44776 0,0 3.150893,-2.39624 3.150893,-2.39624 z"
       inkscape:connector-curvature="0" />
    <text
       xml:space="preserve"
       style="font-style:normal;font-variant:normal;font-weight:bold;font-stretch:normal;font-size:4.23333311px;line-height:1;font-family:'Arial Black';-inkscape-font-specification:'Arial Black, Bold';letter-spacing:0.26458332px;word-spacing:0px;fill:#000000;fill-opacity:1;stroke:none;stroke-width:0.26458332"
       x="37.685005"
       y="130.49109"
       id="text843"><tspan
         sodipodi:role="line"
         id="tspan841"
         x="37.685005"
         y="130.49109"
         style="font-size:8.46666622px;stroke-width:0.26458332">Platzhalter für Titelbild</tspan></text>
  </g>
</svg>
